<svg xmlns="http://www.w3.org/2000/svg" width="173.752" height="87.96" viewBox="0 0 173.752 87.96"><defs><style>.a{fill:#fff;}</style></defs><g transform="translate(-7850.814 1847.195)"><path class="a" d="M7797.72-1786.612v-1.343h3.791v-1.239h-16.484v1.239h3.8v47.473h-1.865c-.2,0-.435.008-.691.008h-1.239v1.239h16.484v-1.239H7799.1c-.076,0-.145,0-.21-.008h-1.175v-1.346c0-.057,0-.115,0-.175v-44.418C7797.716-1786.49,7797.716-1786.551,7797.72-1786.612Z" transform="translate(122 -58.001)"/><g transform="translate(7925.99 -1847.195)"><path class="a" d="M7964.931-1619.644h9.125v-9.125Z" transform="translate(-7938.1 1669.606)"/><path class="a" d="M7964.931-1789.2h9.125v9.125Z" transform="translate(-7938.1 1789.195)"/><path class="a" d="M7872.213-1786.932v45.44h.015v2.258h-12.7v-1.239h1.24c.255,0,.488,0,.69-.008h1.861v-47.473h-3.792v-1.239h12.7v2.262Z" transform="translate(-7859.524 1789.194)"/><path class="a" d="M7940.873-1706.867a5.247,5.247,0,0,0-1.564-3.833,5.229,5.229,0,0,0-3.833-1.564,5.327,5.327,0,0,0-3.865,1.564,5.156,5.156,0,0,0-1.6,3.833,5.127,5.127,0,0,0,1.6,3.825,5.3,5.3,0,0,0,3.865,1.572,5.205,5.205,0,0,0,3.833-1.572A5.216,5.216,0,0,0,7940.873-1706.867Z" transform="translate(-7912.065 1731.847)"/></g><g transform="translate(7850.814 -1784.267)"><rect class="a" width="4.186" height="18.089" transform="translate(0 0)"/><path class="a" d="M8072.731-1746.967c0-2.558,1.4-3.747,3.333-3.747,1.783,0,2.817,1.034,2.817,3.282v7.339h4.031v-7.96c0-4.238-2.481-6.15-5.763-6.15a6.087,6.087,0,0,0-4.6,1.835V-1754h-3.85v13.9h4.032Z" transform="translate(-8062.277 1758.182)"/><path class="a" d="M8129.083-1753.273c0,3.307,1.912,4.987,5.194,4.987a5.757,5.757,0,0,0,3.281-.879l-1.085-2.843a2.715,2.715,0,0,1-1.628.517,1.622,1.622,0,0,1-1.731-1.835v-5.659h3.463v-3.1h-3.463v-3.385h-4.031v3.385h-2.145v3.1h2.145Z" transform="translate(-8105.692 1766.581)"/><path class="a" d="M8176.6-1739.886a7.281,7.281,0,0,0,5.737-2.249l-2.145-2.326a4.714,4.714,0,0,1-3.489,1.344c-2.119,0-3.592-1.06-3.979-2.791h10.517c.026-.336.078-.775.078-1.085a6.882,6.882,0,0,0-7.236-7.21,7.078,7.078,0,0,0-7.416,7.158C8168.663-1742.909,8171.79-1739.886,8176.6-1739.886Zm-.491-11.267a3.3,3.3,0,0,1,3.412,2.894h-6.848A3.291,3.291,0,0,1,8176.1-1751.153Z" transform="translate(-8136.796 1758.182)"/><path class="a" d="M8234.644-1746.656c0-2.662,1.473-3.876,3.7-3.876.311,0,.569.026.9.052v-3.721a5.61,5.61,0,0,0-4.78,2.042V-1754h-3.851v13.9h4.031Z" transform="translate(-8182.976 1758.182)"/></g><g transform="translate(7909.814 -1784.332)"><path class="a" d="M8047.633-1680.976h8.4v-3.256h-8.4v-3.928h9.51v-3.359h-13.671v18.089h14.007v-3.359h-9.846Z" transform="translate(-8043.472 1691.519)"/><path class="a" d="M8111.031-1668.2c0,2.558-1.344,3.747-3.2,3.747-1.783,0-2.817-1.034-2.817-3.359v-7.262h-4.031v7.856c0,4.29,2.455,6.254,5.944,6.254a5.626,5.626,0,0,0,4.315-1.86v1.654h3.825v-13.9h-4.032Z" transform="translate(-8086.341 1679.26)"/><path class="a" d="M8171.471-1675.886a5.61,5.61,0,0,0-4.781,2.042v-1.835h-3.851v13.9h4.032v-6.564c0-2.662,1.473-3.876,3.7-3.876.31,0,.569.026.9.052Z" transform="translate(-8132.455 1679.865)"/><path class="a" d="M8203.747-1675.886c-4.419,0-7.649,2.972-7.649,7.158s3.23,7.158,7.649,7.158,7.623-2.972,7.623-7.158S8208.166-1675.886,8203.747-1675.886Zm0,11.009a3.527,3.527,0,0,1-3.565-3.851,3.527,3.527,0,0,1,3.565-3.85,3.509,3.509,0,0,1,3.541,3.85A3.509,3.509,0,0,1,8203.747-1664.877Z" transform="translate(-8157.247 1679.865)"/><path class="a" d="M8267.359-1675.888a5.4,5.4,0,0,0-4.366,1.809v-1.6h-3.854v19.324l4.034-4.035v-2.857a5.4,5.4,0,0,0,4.186,1.679,6.755,6.755,0,0,0,6.926-7.161A6.752,6.752,0,0,0,8267.359-1675.888Zm-.7,11.007a3.508,3.508,0,0,1-3.54-3.85,3.508,3.508,0,0,1,3.54-3.85,3.508,3.508,0,0,1,3.54,3.85A3.508,3.508,0,0,1,8266.662-1664.88Z" transform="translate(-8204.241 1679.867)"/><path class="a" d="M8328.528-1675.886a7.078,7.078,0,0,0-7.417,7.158c0,4.135,3.126,7.158,7.934,7.158a7.28,7.28,0,0,0,5.736-2.248l-2.145-2.326a4.713,4.713,0,0,1-3.489,1.344c-2.118,0-3.592-1.059-3.979-2.791h10.517c.026-.336.078-.775.078-1.085A6.883,6.883,0,0,0,8328.528-1675.886Zm-3.412,5.944a3.292,3.292,0,0,1,3.438-2.894,3.3,3.3,0,0,1,3.411,2.894Z" transform="translate(-8250.438 1679.865)"/><path class="a" d="M8387.658-1675.886a10.689,10.689,0,0,0-6,1.68l1.447,2.817a6.686,6.686,0,0,1,4-1.292c2.171,0,3.205,1.008,3.205,2.739h-3.205c-4.237,0-5.969,1.705-5.969,4.161,0,2.4,1.938,4.212,5.193,4.212,2.043,0,3.489-.672,4.238-1.938v1.731h3.773v-7.933C8394.352-1673.922,8391.9-1675.886,8387.658-1675.886Zm2.662,9.716a2.97,2.97,0,0,1-2.973,1.887c-1.42,0-2.273-.672-2.273-1.68,0-.93.595-1.628,2.48-1.628h2.766Z" transform="translate(-8295.192 1679.865)"/><path class="a" d="M8446.891-1675.886a6.086,6.086,0,0,0-4.6,1.835v-1.628h-3.851v13.9h4.031v-6.874c0-2.559,1.4-3.747,3.333-3.747,1.783,0,2.816,1.034,2.816,3.282v7.339h4.032v-7.959C8452.653-1673.974,8450.173-1675.886,8446.891-1675.886Z" transform="translate(-8337.901 1679.865)"/><path class="a" d="M8263.172-1604.731v-4.031l-4.031,4.031Z" transform="translate(-8204.242 1629.828)"/></g></g></svg>