<svg xmlns="http://www.w3.org/2000/svg" width="231.681" height="205.179" viewBox="0 0 231.681 205.179"><defs><style>.a{opacity:0.05;}</style></defs><g class="a" transform="translate(0 -29.285)"><g transform="translate(0 29.285)"><g transform="translate(0 0)"><path d="M158.05,57.6a7.223,7.223,0,0,0-4.357-5.272l-6.273-2.565a9.142,9.142,0,0,0-9.946,2l-1.724,1.724-5.242-5.242a11.1,11.1,0,0,0-.674-14.93l-.792-.792a11.1,11.1,0,0,0-15.676,0L74.183,71.708a11.1,11.1,0,0,0,0,15.676l.792.791a11.083,11.083,0,0,0,14.933.677l5.239,5.239-1.724,1.724a9.14,9.14,0,0,0-2,9.946l2.565,6.273a7.22,7.22,0,0,0,4.778,4.239l-15.1,18.016a10.978,10.978,0,0,0-14.352,13.883L4.991,207.546a15.516,15.516,0,0,0,10.514,26.917c.106,0,.214,0,.32,0a15.384,15.384,0,0,0,11.091-4.988l32.208-34.89a3.394,3.394,0,1,0-4.987-4.6L21.93,224.868A8.729,8.729,0,1,1,9.6,212.533L73.31,153.717l7.437,7.437L65,178.208a3.394,3.394,0,1,0,4.987,4.6l16.287-17.643A11,11,0,0,0,100.184,150.8l18.009-15.1a7.223,7.223,0,0,0,4.238,4.779l6.273,2.565a9.143,9.143,0,0,0,9.946-2l1.724-1.724,5.242,5.242a11.1,11.1,0,0,0,.674,14.93l.792.792a11.1,11.1,0,0,0,15.676,0L201.94,121.1a11.1,11.1,0,0,0,0-15.676l-.792-.792a11.1,11.1,0,0,0-14.93-.674l-5.242-5.242,1.724-1.724a9.14,9.14,0,0,0,2-9.946l-2.564-6.273a7.224,7.224,0,0,0-5.272-4.357c-.141-.23-18.58-18.673-18.816-18.814ZM103.717,120.93l9.817,9.817L96.075,145.383l-6.994-6.995Zm89.592-12.759a4.27,4.27,0,0,1,3.039,1.258l.792.792a4.3,4.3,0,0,1,0,6.077L157.957,155.48a4.3,4.3,0,0,1-6.077,0l-.792-.792a4.3,4.3,0,0,1,0-6.077l39.182-39.182a4.272,4.272,0,0,1,3.039-1.258Zm-11.927.548-31,31-5.206-5.206,31-31ZM177.9,92.191l-44.051,44.051a2.369,2.369,0,0,1-2.577.519L125,134.2a.452.452,0,0,1-.149-.738l50.266-50.266a.42.42,0,0,1,.308-.134.518.518,0,0,1,.1.01.422.422,0,0,1,.329.272l2.565,6.274a2.368,2.368,0,0,1-.519,2.577Zm-8.08-13.3-49.273,49.273L106.3,113.917l49.273-49.273ZM82.814,84.635a4.267,4.267,0,0,1-3.038-1.259h0l-.792-.791a4.3,4.3,0,0,1,0-6.077l39.182-39.182a4.3,4.3,0,0,1,6.077,0l.792.792a4.3,4.3,0,0,1,0,6.077L85.852,83.376a4.27,4.27,0,0,1-3.039,1.258Zm15.409,15.98,24.227-24.227a3.394,3.394,0,0,0-4.8-4.8l-17.7,17.7-5.206-5.206,31-31,5.206,5.206-1.975,1.975a3.394,3.394,0,0,0,4.8,4.8l8.5-8.5a2.367,2.367,0,0,1,2.577-.519l6.273,2.565a.452.452,0,0,1,.149.738l-50.267,50.266a.452.452,0,0,1-.737-.149L97.7,103.192a2.368,2.368,0,0,1,.518-2.577Zm-21.53,40.936a4.214,4.214,0,0,1,5.951,0L92.913,151.82a4.208,4.208,0,0,1-5.952,5.951L76.692,147.5A4.214,4.214,0,0,1,76.693,141.551Z" transform="translate(0 -29.285)"/><path d="M322.3,399.452a28.785,28.785,0,0,0-19.974-16.084v-4.011a8.3,8.3,0,0,0-8.293-8.293H235.889a3.394,3.394,0,1,0,0,6.788h58.144a1.508,1.508,0,0,1,1.506,1.506V382.7H208.924v-3.347a1.508,1.508,0,0,1,1.506-1.506h9.443a3.394,3.394,0,1,0,0-6.788H210.43a8.3,8.3,0,0,0-8.293,8.293v4.011a28.786,28.786,0,0,0-19.974,16.084L177.4,409.84a8.294,8.294,0,0,0,7.54,11.747H319.517a8.294,8.294,0,0,0,7.54-11.747Zm-1.515,14.654a1.467,1.467,0,0,1-1.267.692H184.945a1.506,1.506,0,0,1-1.369-2.133l4.758-10.388a21.965,21.965,0,0,1,19.92-12.787h87.955a21.965,21.965,0,0,1,19.92,12.787l4.758,10.388a1.465,1.465,0,0,1-.1,1.44Z" transform="translate(-96.714 -216.408)"/><path d="M472.506,348.005a3.384,3.384,0,0,0,2.393-.987l3.672-3.651a3.394,3.394,0,1,0-4.785-4.814l-3.672,3.651a3.394,3.394,0,0,0,2.392,5.8Z" transform="translate(-256.839 -198.069)"/><path d="M446.812,320.2l-1.274,5.079a3.394,3.394,0,1,0,6.584,1.652l1.274-5.079a3.394,3.394,0,0,0-6.584-1.652Z" transform="translate(-243.876 -187.155)"/><path d="M485.853,372.094a3.389,3.389,0,0,0,4.1,2.49l5.087-1.244a3.394,3.394,0,1,0-1.613-6.593l-5.087,1.244A3.393,3.393,0,0,0,485.853,372.094Z" transform="translate(-265.951 -213.991)"/></g></g></g></svg>