<svg xmlns="http://www.w3.org/2000/svg" width="224.143" height="216.403" viewBox="0 0 224.143 216.403"><defs><style>.a{opacity:0.03;}</style></defs><path class="a" d="M181.252,83.557c14.579-11.909,9.544-35.459-8.675-40.34a23.008,23.008,0,0,0-14.206.711L143.9,18.855a15.638,15.638,0,0,0-26.772-.525A230.037,230.037,0,0,1,47.439,88.815a3.738,3.738,0,0,0-1.249,4.919c.152.279,24.13,41.8,24.288,42.079a3.736,3.736,0,1,0,6.47-3.736L54.464,93.131a237.392,237.392,0,0,0,68.98-70.816,8.165,8.165,0,0,1,13.981.276l51.833,89.777a8.166,8.166,0,0,1-6.751,12.246,237.517,237.517,0,0,0-99,25.92c-.131.067-35.087,20.252-37.495,21.642a13.1,13.1,0,0,1-17.874-4.789L9.221,134.611a13.1,13.1,0,0,1,4.789-17.874l22.774-13.149a3.736,3.736,0,1,0-3.736-6.47L10.274,110.267a20.579,20.579,0,0,0-7.524,28.08l18.923,32.775a20.579,20.579,0,0,0,28.08,7.524l.862-.5,23.362,40.465a12.14,12.14,0,0,0,16.592,4.446l8.194-4.731a12.139,12.139,0,0,0,4.446-16.592L86.651,173.059a3.736,3.736,0,1,0-6.47,3.736l16.558,28.678a4.671,4.671,0,0,1-1.711,6.385l-8.194,4.731a4.672,4.672,0,0,1-6.385-1.711L57.086,174.413,87,157.143a230.029,230.029,0,0,1,95.8-25.063,15.637,15.637,0,0,0,12.93-23.448Zm-1.067-25.8a15.738,15.738,0,0,1-2.742,19.2L162.18,50.522A15.708,15.708,0,0,1,180.185,57.755Zm36.539-16.609-9.666,5.581a3.736,3.736,0,1,1-3.736-6.47l9.666-5.581a3.736,3.736,0,1,1,3.736,6.47ZM175.155,19.854l2.357-8.8a3.736,3.736,0,1,1,7.217,1.934l-2.357,8.8a3.736,3.736,0,1,1-7.217-1.934Zm48.86,61.183a3.738,3.738,0,0,1-3.606,2.77c-.676,0-.2.077-9.765-2.485a3.736,3.736,0,0,1,1.934-7.217l8.8,2.357a3.737,3.737,0,0,1,2.642,4.576Z" transform="translate(0 -8.288)"/></svg>